<svg fill="currentColor" version="1.1" viewBox="0 0 512 512" xmlns="http://www.w3.org/2000/svg"><style type="text/css">.error-circle {animation: animate-error-circle 1s;transform-origin: 50% 50%;}.x-mark {animation: animate-error-x-mark 1.5s;transform-origin: 50% 50%;}@keyframes animate-error-circle {0%, 50% {transform: rotateX(100deg);opacity: 0;}100% {transform: rotateX(0deg);opacity: 1;}}@keyframes animate-error-x-mark {0% {transform: scale(0.4) translateY(30%);opacity: 0;}66.6% {transform: scale(0.4) translateY(30%);opacity: 0;}86.58% {transform: scale(1.15) translateY(-4%);}100% {transform: scale(1) translateY(0);opacity: 1;}}</style><path class="error-circle" d="m256 512c-68.4 0-132.7-26.6-181-75-48.4-48.3-75-112.6-75-181s26.6-132.7 75-181c48.3-48.4 112.6-75 181-75s132.7 26.6 181 75c48.4 48.4 75 112.6 75 181s-26.6 132.7-75 181c-48.3 48.4-112.6 75-181 75zm0-458.5c-111.7 0-202.5 90.8-202.5 202.5s90.8 202.5 202.5 202.5 202.5-90.8 202.5-202.5-90.8-202.5-202.5-202.5z" /><path class="x-mark" d="m347.8 374.6c-7.1 0-13.9-2.8-18.9-7.8l-72.8-72.9-72.8 72.8c-5.1 5.1-11.8 7.8-18.9 7.8s-14-2.8-19-7.8c-10.4-10.4-10.4-27.4 0-37.9l72.9-72.8-72.9-72.8c-10.4-10.4-10.5-27.4-0.1-37.9h0.1c5-5 11.9-7.9 19-7.9s13.8 2.9 18.9 7.9l72.8 72.8 72.8-72.9c5.1-5.1 11.8-7.8 18.9-7.8s13.8 2.8 18.8 7.8c10.4 10.4 10.4 27.5 0 38l-72.7 72.9 72.7 72.8c10.4 10.4 10.4 27.3 0 37.8-5 5-11.6 7.8-18.8 7.9z" /></svg>