<svg xmlns="http://www.w3.org/2000/svg" viewBox="0 0 512 512" fill="currentColor" height="100%"><style type="text/css">.info-circle {animation: animate-info-circle 1s;transform-origin: 50% 50%;}.i-mark {animation: animate-i-mark 1.5s;transform-origin: 50% 50%;}@keyframes animate-info-circle {0%, 50% {transform: rotateX(100deg);opacity: 0;}100% {transform: rotateX(0deg);opacity: 1;}}@keyframes animate-i-mark {0%, 33.3% {transform: rotateZ(45deg);opacity: 0;}50.05% {transform: rotateZ(-25deg);opacity: 0.4;}66.7% {transform: rotateZ(15deg);opacity: 0.8;}83.35% {transform: rotateZ(-5deg);opacity: 1;}100% {transform: rotateZ(0);opacity: 1;}}</style><g class="info-circle"><path d="m256 512c-68.4 0-132.7-26.6-181-75-48.4-48.3-75-112.6-75-181s26.6-132.7 75-181c48.3-48.4 112.6-75 181-75s132.7 26.6 181 75c48.4 48.4 75 112.6 75 181s-26.6 132.7-75 181c-48.3 48.4-112.6 75-181 75zm0-458.5c-111.7 0-202.5 90.8-202.5 202.5s90.8 202.5 202.5 202.5 202.5-90.8 202.5-202.5-90.8-202.5-202.5-202.5z" /></g><g class="i-mark"><path d="m214.1 405.3c-6.8 0-13-2.5-17.7-7.3s-7.3-10.9-7.3-17.8c0-6.8 2.5-13 7.3-17.8s10.9-7.4 17.7-7.4h26.4v-110.2h-26.3c-6.8 0-13-2.5-17.8-7.3s-7.4-11-7.4-17.7 2.5-12.9 7.2-17.8c4.9-5 11-7.6 17.9-7.6h51.6c6.9 0 13.1 2.7 17.9 7.7 4.7 4.9 7.2 11 7.2 17.7v135.2h13c6.7 0 12.8 2.5 17.8 7.2 5 4.8 7.7 11 7.7 17.9 0 6.8-2.5 13-7.3 17.8s-10.9 7.4-17.7 7.4z" /><path d="m258.3 171.7h-3.2c-17.9 0-32.5-14.6-32.5-32.5s14.6-32.5 32.5-32.5h3.2c17.9 0 32.5 14.6 32.5 32.5 0 17.8-14.6 32.5-32.5 32.5z" /></g></svg>