<svg xmlns="http://www.w3.org/2000/svg" viewBox="0 0 512 512" fill="currentColor" height="100%"><style type="text/css">.question-circle {animation: animate-question-circle 1s;transform-origin: 50% 50%;}.question-mark {animation: animate-question-mark 2s;transform-origin: 50% 50%;}@keyframes animate-question-circle {0%, 50% {transform: rotateX(100deg);opacity: 0;}100% {transform: rotateX(0deg);opacity: 1;}}@keyframes animate-question-mark {0%, 33.3% {opacity: 0;transform: rotateY(-540deg);}100% {opacity: 1;transform: rotateY(0);}}</style><path class="question-circle" d="m256 512c-68.4 0-132.7-26.6-181-75-48.4-48.3-75-112.6-75-181s26.6-132.7 75-181c48.3-48.4 112.6-75 181-75s132.7 26.6 181 75c48.4 48.4 75 112.6 75 181s-26.6 132.7-75 181c-48.3 48.4-112.6 75-181 75zm0-458.5c-111.7 0-202.5 90.8-202.5 202.5s90.8 202.5 202.5 202.5 202.5-90.8 202.5-202.5-90.8-202.5-202.5-202.5z" /><g class="question-mark"><path d="m279.1 315.3c0.3 6.8-1.9 12.6-6.6 17.6-4.8 5-10.9 7.6-18.2 7.8-7.3 0.4-13.5-1.7-18.7-6.2s-8-10.1-8.2-16.9l-0.8-18.9c-0.7-15.1 3.3-27.6 12-37.4 8.8-9.8 17.7-18.5 26.7-26.3 8.6-7.2 16.5-15.2 23.6-24.2 7.3-8.9 10.6-19.3 10.1-31.4-0.6-11.5-5-20.6-13.4-27.3s-19.4-9.8-33-9.1c-11.4 0.5-20.4 3.7-27 9.8-6.6 6-10.1 14.3-10.7 24.8-0.2 5.7-2.8 11-7.5 15.6-4.8 4.7-10.6 7.1-17.3 7.4-6.8 0.2-13.1-2.1-18.8-7.1-5.7-4.9-8.7-10.8-9-17.6-0.6-13.7 3.1-26.2 10.9-37.8s18.6-21.1 32.1-28.5 28.7-11.45 45.3-12.17c27.7-1.26 51 5.27 70 19.27 18.9 14.1 28.9 32.9 29.9 56.4 1 21.9-3.1 39.1-12.2 51.5-9.1 12.5-19.5 23.4-31.1 32.8-8.2 6.6-15 13-20.8 19.3-5.7 6.3-8.4 12.8-8.2 19.6z" /><path d="m258.2 414.9c-7.3 0.4-13.6-1.9-19-6.7-5.4-4.9-8.2-10.8-8.6-17.6-0.3-7.3 2-13.6 7-18.9 4.9-5.4 11.1-8.1 18.3-8.4 6.8-0.3 12.9 2 18.1 6.8 5.2 4.9 7.9 10.9 8.3 18.2 0.2 7-1.9 13-6.7 18.3-4.7 5.2-10.5 8-17.4 8.3z" /></g></svg>