<svg version="1.1" viewBox="0 0 512 512" xmlns="http://www.w3.org/2000/svg"><path d="m256 0c-141 0-256 115-256 256.1 0 141 115 255.9 256 255.9 141.1 0 256-114.9 256-255.9 0-141.1-114.9-256.1-256-256.1zm0 50c114.1 0 206 92 206 206.1 0 114-91.9 205.9-206 205.9-114 0-206-91.9-206-205.9 0-114.1 92-206.1 206-206.1zm-31.4 62.7c0-16 13-30.8 33.1-30.8 14.9 0 29.5 14.8 29.5 30.8v163.6c0 16.4-14.5 30.9-29.5 30.9-20.1 0-33.1-14.5-33.1-30.9zm33.1 317.4c-24.4 0-41.7-18.4-41.7-42.3 0-20.9 17.3-38.4 41.7-38.4 20.8 0 38.3 17.5 38.3 38.4 0 23.9-17.5 42.3-38.3 42.3z"/></svg>
