<svg version="1.1" viewBox="0 0 512 512" xmlns="http://www.w3.org/2000/svg"><path d="m256 0c-141 0-256 115-256 256.1 0 141 115 255.9 256 255.9 141.1 0 256-114.9 256-255.9 0-141.1-114.9-256.1-256-256.1zm0 40c119.6 0 216 96.5 216 216.1 0 119.5-96.4 215.9-216 215.9-119.5 0-216-96.4-216-215.9 0-119.6 96.5-216.1 216-216.1zm-30.5 76.7c0-15.6 12.6-29.97 32.2-29.97 14.4 0 28.6 14.37 28.6 29.97v159c0 16-14.1 30.1-28.6 30.1-19.6 0-32.2-14.1-32.2-30.1zm32.2 308.6c-23.8 0-40.6-17.9-40.6-41.2 0-20.3 16.8-37.3 40.6-37.3 20.2 0 37.2 17 37.2 37.3 0 23.3-17 41.2-37.2 41.2z"/></svg>
