<svg version="1.1" viewBox="0 0 512 512" xmlns="http://www.w3.org/2000/svg"><path d="m256 0c-141 0-256 115-256 256.1 0 141 115 255.9 256 255.9 141.1 0 256-114.9 256-255.9 0-141.1-114.9-256.1-256-256.1zm0 48c115.2 0 208 92.9 208 208.1 0 115.1-92.8 207.9-208 207.9-115.1 0-208-92.8-208-207.9 0-115.2 92.9-208.1 208-208.1zm-26.3 87.8c0-13.5 10.9-25.9 27.8-25.9 12.4 0 24.6 12.4 24.6 25.9v137.2c0 13.8-12.1 26-24.6 26-16.9 0-27.8-12.2-27.8-26zm27.8 266.3c-20.6 0-35.1-15.4-35.1-35.6 0-17.5 14.5-32.1 35.1-32.1 17.4 0 32.1 14.6 32.1 32.1 0 20.2-14.7 35.6-32.1 35.6z"/></svg>
